<svg id="Shelta" xmlns="http://www.w3.org/2000/svg" xmlns:xlink="http://www.w3.org/1999/xlink" viewBox="0 0 509.88 336.99"><defs><style>.cls-1,.cls-2,.cls-4{fill:none;}.cls-2{stroke:#3a35ff;stroke-linecap:round;stroke-linejoin:round;stroke-width:10px;}.cls-3{fill:#3a35ff;}.cls-4{stroke:#fff;}.cls-4,.cls-6{stroke-miterlimit:10;stroke-width:2px;}.cls-5{clip-path:url(#clip-path);}.cls-6{font-size:224.04px;fill:#f1592a;stroke:#f1592a;font-family:Poppins-Italic, Poppins;font-style:italic;}.cls-7{fill:#fff;}</style><clipPath id="clip-path" transform="translate(-120.9 -12.04)"><path class="cls-1" d="M148.67,224.07l26.17-20,.06-9.68,42.36-.44,25.42,19.72,14,16.61q11.6-87.92,23.17-175.84l-142.9,3L93.48,164.31Z"/></clipPath></defs><title>Shelta Logo 1 White</title><g id="SheltaLogoWhite"><g id="Roofing"><path id="Roofing-2" data-name="Roofing" class="cls-2" d="M284.51,74.72,226.22,20.15a11,11,0,0,0-6.06-3c-4.7-.66-8.74,2.87-10.61,4.54-6.73,6-35.71,34.44-74.78,73.77a17.49,17.49,0,0,0-5.05,5.56,19.84,19.84,0,0,0-2,12.13c.94,8.5.49,37.37-.21,105.19.05,1.45.64,6.66,6.27,12a19.51,19.51,0,0,0,10.61,5q76.07.09,152.09,0,150-.16,299.9-1" transform="translate(-120.9 -12.04)"/><path class="cls-3" d="M174,58.1,150.43,78.38a2.35,2.35,0,0,1-2.14-2.51V38.68a2.35,2.35,0,0,1,2.14-2.51h22.74a2.35,2.35,0,0,1,2.14,2.51V54.76C175.31,56.15,175.37,57.5,174,58.1Z" transform="translate(-120.9 -12.04)"/></g><g id="helta"><path class="cls-4" d="M329.2,149.86a23.56,23.56,0,0,1,9.57,9.82,32.71,32.71,0,0,1,3.5,15.72v39.91H328.4V177.49q0-9.09-4.55-13.94t-12.4-4.85q-7.86,0-12.46,4.85t-4.61,13.94v37.82h-14V124.44h14V155.5a23.5,23.5,0,0,1,9-6.63,30.24,30.24,0,0,1,12-2.33A28.42,28.42,0,0,1,329.2,149.86Z" transform="translate(-120.9 -12.04)"/><path class="cls-4" d="M421.6,186.7H369.9a18.77,18.77,0,0,0,6,13,19,19,0,0,0,13.26,4.92q11.29,0,16-9.46h15.1a30.51,30.51,0,0,1-11.11,15.29q-8.06,6-20,5.95a34.47,34.47,0,0,1-17.37-4.36,31,31,0,0,1-12-12.28,37.38,37.38,0,0,1-4.36-18.35,38.28,38.28,0,0,1,4.24-18.36,29.72,29.72,0,0,1,11.91-12.22,35.41,35.41,0,0,1,17.62-4.3,34.48,34.48,0,0,1,17.07,4.17,29.66,29.66,0,0,1,11.67,11.73,35.38,35.38,0,0,1,4.17,17.38A43.53,43.53,0,0,1,421.6,186.7Zm-14.12-11.3A15.89,15.89,0,0,0,402,163a19.7,19.7,0,0,0-13.38-4.67,18,18,0,0,0-12.41,4.6A19.26,19.26,0,0,0,370,175.4Z" transform="translate(-120.9 -12.04)"/><path class="cls-4" d="M449.84,124.44v90.87h-14V124.44Z" transform="translate(-120.9 -12.04)"/><path class="cls-4" d="M484.6,159.07v37.45q0,3.81,1.78,5.46t6.08,1.66h8.59v11.67H490q-9.47,0-14.49-4.42t-5-14.37V159.07h-8V147.65h8V130.82H484.6v16.83h16.45v11.42Z" transform="translate(-120.9 -12.04)"/><path class="cls-4" d="M513.52,163.12a30.86,30.86,0,0,1,27.69-16.58,29.55,29.55,0,0,1,13.94,3.13,28.27,28.27,0,0,1,9.51,7.8v-9.82h14.12v15h28.06a3.59,3.59,0,0,1,2.84-.86,3.24,3.24,0,0,1,2.76,2.89,3.2,3.2,0,0,1-2.33,3.08,3.62,3.62,0,0,1-3.27-.78l-28.06.09V180l11.41.09a3.6,3.6,0,0,1,3.1-.79,3.21,3.21,0,0,1,2.47,3.08,3.16,3.16,0,0,1-2.11,2.73,3.37,3.37,0,0,1-3.56-.88H578.78v13.27l45.65-.1a3.38,3.38,0,0,1,3-.93,3,3,0,0,1,.62,5.65,3.24,3.24,0,0,1-3.6-.58H578.78v13.79H564.66V205.24a27.83,27.83,0,0,1-9.7,8,31.41,31.41,0,0,1-30-1.29,31.76,31.76,0,0,1-11.48-12.52,38.49,38.49,0,0,1-4.24-18.24A37.39,37.39,0,0,1,513.52,163.12Zm48.26,6.14a20.31,20.31,0,0,0-7.56-7.86,19.75,19.75,0,0,0-10.07-2.7,20.15,20.15,0,0,0-10.07,2.64,19.92,19.92,0,0,0-7.55,7.73,24.21,24.21,0,0,0-2.88,12.1,25.24,25.24,0,0,0,2.88,12.28,20.27,20.27,0,0,0,7.62,8,19.43,19.43,0,0,0,10,2.77,19.66,19.66,0,0,0,10.07-2.71,20.14,20.14,0,0,0,7.56-7.92,24.85,24.85,0,0,0,2.88-12.21A24.55,24.55,0,0,0,561.78,169.26Z" transform="translate(-120.9 -12.04)"/></g><g class="cls-5"><text class="cls-6" transform="matrix(1, 0, -0.09, 1, 12.26, 208.33)">S</text></g><g id="Rooficon"><g id="Windows"><rect class="cls-7" x="65.66" y="189.69" width="4.29" height="4.29"/><rect class="cls-7" x="71.69" y="189.69" width="4.29" height="4.29"/><rect class="cls-7" x="71.69" y="195.53" width="4.29" height="4.29"/><rect class="cls-7" x="65.66" y="195.53" width="4.29" height="4.29"/></g><path id="Roof" class="cls-7" d="M192.09,193l-25,20h-.37v-.55l9.76-7.65v-9.25l4,0,0,6.16,11.41-9.17,21,.11,24.59,19.81H216.72Z" transform="translate(-120.9 -12.04)"/><path class="cls-7" d="M162.89,215.33a47,47,0,0,0,48.46-2.56,63.62,63.62,0,0,1-48.46,2.56Z" transform="translate(-120.9 -12.04)"/></g></g></svg>