<svg id="Shelta" xmlns="http://www.w3.org/2000/svg" xmlns:xlink="http://www.w3.org/1999/xlink" viewBox="0 0 509.88 336.99"><defs><style>.cls-1,.cls-2,.cls-3{fill:none;}.cls-2,.cls-3{stroke:#000;}.cls-2{stroke-linecap:round;stroke-linejoin:round;stroke-width:10px;}.cls-3,.cls-5{stroke-miterlimit:10;stroke-width:2px;}.cls-4{clip-path:url(#clip-path);}.cls-5{font-size:224.04px;fill:#f1592a;stroke:#f1592a;font-family:Poppins-Italic, Poppins;font-style:italic;}.cls-6{fill:#181b20;}</style><clipPath id="clip-path" transform="translate(-120.6 -380.34)"><path class="cls-1" d="M148.37,592.38l26.18-20,.06-9.68,42.35-.45L242.38,582l14,16.61Q268,510.65,279.58,422.74l-142.91,3.05L93.18,532.62Z"/></clipPath></defs><title>Shelta LogoBlack Stroke</title><g id="SheltaLogoBlack-Stroke"><g id="Roofing"><path id="Roofing-2" data-name="Roofing" class="cls-2" d="M284.21,443l-58.28-54.58a11.13,11.13,0,0,0-6.07-3c-4.7-.65-8.74,2.87-10.61,4.55-6.73,6-35.71,34.43-74.78,73.77a17.6,17.6,0,0,0-5.05,5.56,19.81,19.81,0,0,0-2,12.12c.94,8.5.5,37.38-.2,105.2,0,1.44.63,6.65,6.26,12a19.51,19.51,0,0,0,10.61,5q76.07.09,152.1,0,149.94-.17,299.89-1" transform="translate(-120.6 -380.34)"/><path d="M173.7,426.41l-23.56,20.28a2.35,2.35,0,0,1-2.15-2.51V407a2.35,2.35,0,0,1,2.15-2.51h22.73A2.35,2.35,0,0,1,175,407v16.09C175,424.46,175.07,425.81,173.7,426.41Z" transform="translate(-120.6 -380.34)"/></g><g id="helta"><path class="cls-3" d="M328.9,518.16a23.66,23.66,0,0,1,9.58,9.83A32.79,32.79,0,0,1,342,543.7v39.92H328.1V545.79q0-9.09-4.54-13.94T311.15,527q-7.86,0-12.46,4.85t-4.61,13.94v37.83h-14V492.74h14v31.07a23.65,23.65,0,0,1,9-6.63,30.24,30.24,0,0,1,12-2.33A28.39,28.39,0,0,1,328.9,518.16Z" transform="translate(-120.6 -380.34)"/><path class="cls-3" d="M421.3,555H369.6a18.77,18.77,0,0,0,6,13,19,19,0,0,0,13.26,4.91q11.31,0,16-9.45H420a30.43,30.43,0,0,1-11.11,15.28q-8,6-20,6a34.5,34.5,0,0,1-17.37-4.36,31,31,0,0,1-12-12.28,37.53,37.53,0,0,1-4.36-18.36,38.39,38.39,0,0,1,4.24-18.36,29.84,29.84,0,0,1,11.91-12.22,35.51,35.51,0,0,1,17.62-4.29A34.48,34.48,0,0,1,406,519a29.47,29.47,0,0,1,11.67,11.73,35.36,35.36,0,0,1,4.18,17.38A43.32,43.32,0,0,1,421.3,555Zm-14.12-11.3a15.93,15.93,0,0,0-5.52-12.4,19.79,19.79,0,0,0-13.39-4.66,18,18,0,0,0-12.4,4.6,19.23,19.23,0,0,0-6.14,12.46Z" transform="translate(-120.6 -380.34)"/><path class="cls-3" d="M449.55,492.74v90.88h-14V492.74Z" transform="translate(-120.6 -380.34)"/><path class="cls-3" d="M484.3,527.37v37.46q0,3.81,1.78,5.46t6.08,1.66h8.59v11.67H489.7q-9.45,0-14.49-4.43t-5-14.36V527.37h-8V516h8V499.13H484.3V516h16.45v11.42Z" transform="translate(-120.6 -380.34)"/><path class="cls-3" d="M513.22,531.42a30.87,30.87,0,0,1,27.69-16.57A29.52,29.52,0,0,1,554.85,518a28.27,28.27,0,0,1,9.51,7.8V516h14.13v15h28a3.65,3.65,0,0,1,2.85-.85,3,3,0,0,1,.42,6,3.66,3.66,0,0,1-3.27-.79l-28,.1v12.88l11.4.1a3.59,3.59,0,0,1,3.1-.8,3.23,3.23,0,0,1,2.47,3.09,3.12,3.12,0,0,1-2.11,2.72,3.35,3.35,0,0,1-3.56-.87h-11.3v13.26l45.64-.09a3.35,3.35,0,0,1,3-.93,3,3,0,0,1,.62,5.65,3.26,3.26,0,0,1-3.6-.58H578.49v13.79H564.36V573.55a27.74,27.74,0,0,1-9.7,8,31.41,31.41,0,0,1-30-1.29,31.73,31.73,0,0,1-11.48-12.53A38.45,38.45,0,0,1,509,549.48,37.41,37.41,0,0,1,513.22,531.42Zm48.26,6.14a20.33,20.33,0,0,0-7.55-7.85A19.81,19.81,0,0,0,543.86,527a19.87,19.87,0,0,0-17.63,10.38,24.21,24.21,0,0,0-2.88,12.1,25.26,25.26,0,0,0,2.88,12.28,20.41,20.41,0,0,0,7.62,8,19.55,19.55,0,0,0,10,2.76,19.8,19.8,0,0,0,10.07-2.7,20.19,20.19,0,0,0,7.55-7.92,24.89,24.89,0,0,0,2.88-12.22A24.57,24.57,0,0,0,561.48,537.56Z" transform="translate(-120.6 -380.34)"/></g><g class="cls-4"><text class="cls-5" transform="matrix(1, 0, -0.09, 1, 12.26, 208.33)">S</text></g><g id="Rooficon"><g id="Windows"><rect class="cls-6" x="65.66" y="189.69" width="4.29" height="4.29"/><rect class="cls-6" x="71.69" y="189.69" width="4.29" height="4.29"/><rect class="cls-6" x="71.69" y="195.53" width="4.29" height="4.29"/><rect class="cls-6" x="65.66" y="195.53" width="4.29" height="4.29"/></g><path id="Roof" class="cls-6" d="M191.79,561.31l-25,20h-.37v-.54l9.76-7.65v-9.25l4,0v6.16l11.4-9.17,21,.11,24.6,19.8H216.42Z" transform="translate(-120.6 -380.34)"/><path class="cls-6" d="M162.6,583.64a47,47,0,0,0,48.46-2.56,63.63,63.63,0,0,1-48.46,2.56Z" transform="translate(-120.6 -380.34)"/></g></g></svg>