<svg id="Shelta" xmlns="http://www.w3.org/2000/svg" xmlns:xlink="http://www.w3.org/1999/xlink" viewBox="0 0 168.61 336.99"><defs><style>.cls-1,.cls-2{fill:none;}.cls-2{stroke:#3a35ff;stroke-linecap:round;stroke-linejoin:round;stroke-width:10px;}.cls-3{fill:#3a35ff;}.cls-4{clip-path:url(#clip-path);}.cls-5{font-size:224.04px;fill:#f1592a;stroke:#f1592a;stroke-miterlimit:10;stroke-width:2px;font-family:Poppins-Italic, Poppins;font-style:italic;}.cls-6{fill:#181b20;}</style><clipPath id="clip-path" transform="translate(-111.98 -150.94)"><path class="cls-1" d="M139.75,363l26.18-20,.06-9.67,42.35-.45,25.42,19.73,14,16.61Q259.37,281.25,271,193.34l-142.91,3L84.56,303.22Z"/></clipPath></defs><title>Shelta Logo 1</title><g id="Shelta_Logo" data-name="Shelta Logo"><g id="Roofing"><path id="Roofing-Small" class="cls-2" d="M275.59,213.63l-58.28-54.58a11.13,11.13,0,0,0-6.07-3c-4.7-.66-8.74,2.87-10.61,4.55-6.73,6-35.71,34.43-74.78,73.77a17.55,17.55,0,0,0-5,5.55c-2.94,5.22-2.17,10.73-2,12.13.94,8.5.5,37.38-.2,105.2,0,1.44.64,6.65,6.26,12a19.62,19.62,0,0,0,10.61,5.05l129.05.2" transform="translate(-111.98 -150.94)"/><path class="cls-3" d="M165.08,197l-23.56,20.28a2.34,2.34,0,0,1-2.15-2.5v-37.2a2.35,2.35,0,0,1,2.15-2.51h22.73a2.35,2.35,0,0,1,2.15,2.51v16.09C166.4,195.05,166.45,196.41,165.08,197Z" transform="translate(-111.98 -150.94)"/></g><g id="Logo"><g class="cls-4"><text class="cls-5" transform="matrix(1, 0, -0.09, 1, 12.26, 208.33)">S</text></g><g id="Rooficon"><g id="Windows"><rect class="cls-6" x="65.66" y="189.69" width="4.29" height="4.29"/><rect class="cls-6" x="71.69" y="189.69" width="4.29" height="4.29"/><rect class="cls-6" x="71.69" y="195.53" width="4.29" height="4.29"/><rect class="cls-6" x="65.66" y="195.53" width="4.29" height="4.29"/></g><path id="Roof" class="cls-6" d="M183.17,331.91l-25,19.95h-.36v-.54l9.75-7.66v-9.24l4,0v6.15l11.4-9.16,21,.11,24.6,19.8H207.8Z" transform="translate(-111.98 -150.94)"/><path class="cls-6" d="M154,354.24a47,47,0,0,0,48.46-2.56A63.63,63.63,0,0,1,154,354.24Z" transform="translate(-111.98 -150.94)"/></g></g></g></svg>