<svg id="Shelta" xmlns="http://www.w3.org/2000/svg" xmlns:xlink="http://www.w3.org/1999/xlink" viewBox="0 0 509.88 336.99"><defs><style>.cls-1,.cls-2,.cls-4{fill:none;}.cls-2{stroke:#3a35ff;stroke-linecap:round;stroke-linejoin:round;stroke-width:10px;}.cls-3{fill:#3a35ff;}.cls-4{stroke:#000;}.cls-4,.cls-6{stroke-miterlimit:10;stroke-width:2px;}.cls-5{clip-path:url(#clip-path);}.cls-6{font-size:224.04px;fill:#f1592a;stroke:#f1592a;font-family:Poppins-Italic, Poppins;font-style:italic;}.cls-7{fill:#181b20;}</style><clipPath id="clip-path" transform="translate(-111.98 -150.94)"><path class="cls-1" d="M139.75,363l26.18-20,.06-9.67,42.35-.45,25.42,19.73,14,16.61Q259.37,281.25,271,193.34l-142.91,3L84.56,303.22Z"/></clipPath></defs><title>Shelta Logo 1 Full</title><g id="Shelta_Logo" data-name="Shelta Logo"><g id="Roofing"><path id="Roofing-2" data-name="Roofing" class="cls-2" d="M275.59,213.63l-58.28-54.58a11.13,11.13,0,0,0-6.07-3c-4.7-.66-8.74,2.87-10.61,4.55-6.73,6-35.71,34.43-74.78,73.77a17.55,17.55,0,0,0-5,5.55c-2.94,5.22-2.17,10.73-2,12.13.94,8.5.5,37.38-.2,105.19,0,1.45.64,6.66,6.26,12a19.62,19.62,0,0,0,10.61,5.05q76.07.09,152.1,0,149.94-.18,299.89-1" transform="translate(-111.98 -150.94)"/><path class="cls-3" d="M165.08,197l-23.56,20.28a2.34,2.34,0,0,1-2.15-2.5v-37.2a2.35,2.35,0,0,1,2.15-2.51h22.73a2.35,2.35,0,0,1,2.15,2.51v16.09C166.4,195.05,166.45,196.41,165.08,197Z" transform="translate(-111.98 -150.94)"/></g><g id="Logo"><g id="helta"><path class="cls-4" d="M320.28,288.76a23.7,23.7,0,0,1,9.58,9.82,32.86,32.86,0,0,1,3.5,15.72v39.91H319.48V316.39q0-9.09-4.54-13.94t-12.41-4.85q-7.86,0-12.46,4.85t-4.61,13.94v37.82h-14V263.34h14v31.07a23.45,23.45,0,0,1,9-6.63,30.07,30.07,0,0,1,12-2.33A28.39,28.39,0,0,1,320.28,288.76Z" transform="translate(-111.98 -150.94)"/><path class="cls-4" d="M412.68,325.6H361a18.76,18.76,0,0,0,6,13,19,19,0,0,0,13.27,4.91q11.3,0,16-9.46h15.1a30.41,30.41,0,0,1-11.11,15.29q-8,6-20,6A34.51,34.51,0,0,1,362.89,351a31.06,31.06,0,0,1-12-12.28,37.53,37.53,0,0,1-4.36-18.36A38.39,38.39,0,0,1,350.73,302a29.9,29.9,0,0,1,11.91-12.22,35.52,35.52,0,0,1,17.63-4.29,34.46,34.46,0,0,1,17.06,4.17A29.4,29.4,0,0,1,409,301.35a35.35,35.35,0,0,1,4.18,17.37A43.36,43.36,0,0,1,412.68,325.6Zm-14.12-11.3A15.93,15.93,0,0,0,393,301.9a19.79,19.79,0,0,0-13.39-4.67,18,18,0,0,0-12.4,4.61,19.23,19.23,0,0,0-6.14,12.46Z" transform="translate(-111.98 -150.94)"/><path class="cls-4" d="M440.93,263.34v90.87h-14V263.34Z" transform="translate(-111.98 -150.94)"/><path class="cls-4" d="M475.68,298v37.45c0,2.54.59,4.37,1.78,5.47s3.21,1.66,6.08,1.66h8.59v11.66H481.08q-9.45,0-14.49-4.42t-5-14.37V298h-8V286.55h8V269.73h14.12v16.82h16.45V298Z" transform="translate(-111.98 -150.94)"/><path class="cls-4" d="M504.6,302a30.82,30.82,0,0,1,27.69-16.57,29.52,29.52,0,0,1,13.94,3.13,28.26,28.26,0,0,1,9.52,7.79v-9.82h14.12v15h28a3.65,3.65,0,0,1,2.85-.85,3,3,0,0,1,.42,6,3.66,3.66,0,0,1-3.27-.79l-28,.1v12.88l11.4.1a3.59,3.59,0,0,1,3.1-.8,3.21,3.21,0,0,1,2.47,3.09,3.14,3.14,0,0,1-2.11,2.72,3.33,3.33,0,0,1-3.55-.87H569.87v13.26l45.64-.09a3.36,3.36,0,0,1,3-.93,3,3,0,0,1,.62,5.64,3.24,3.24,0,0,1-3.6-.57H569.87v13.78H555.75V344.14a27.78,27.78,0,0,1-9.71,8,31.41,31.41,0,0,1-30-1.29,31.79,31.79,0,0,1-11.48-12.53,38.45,38.45,0,0,1-4.24-18.23A37.41,37.41,0,0,1,504.6,302Zm48.26,6.14a20.35,20.35,0,0,0-7.55-7.86,19.77,19.77,0,0,0-10.07-2.7,20.09,20.09,0,0,0-10.07,2.64,19.88,19.88,0,0,0-7.55,7.74,24.1,24.1,0,0,0-2.89,12.1,25.16,25.16,0,0,0,2.89,12.28,20.32,20.32,0,0,0,7.61,8,19.55,19.55,0,0,0,10,2.76,19.77,19.77,0,0,0,10.07-2.7,20.12,20.12,0,0,0,7.55-7.92,24.89,24.89,0,0,0,2.89-12.22A24.55,24.55,0,0,0,552.86,308.16Z" transform="translate(-111.98 -150.94)"/></g><g class="cls-5"><text class="cls-6" transform="matrix(1, 0, -0.09, 1, 12.26, 208.33)">S</text></g><g id="Rooficon"><g id="Windows"><rect class="cls-7" x="65.66" y="189.69" width="4.29" height="4.29"/><rect class="cls-7" x="71.69" y="189.69" width="4.29" height="4.29"/><rect class="cls-7" x="71.69" y="195.53" width="4.29" height="4.29"/><rect class="cls-7" x="65.66" y="195.53" width="4.29" height="4.29"/></g><path id="Roof" class="cls-7" d="M183.17,331.91l-25,19.95h-.36v-.54l9.75-7.66v-9.24l4,0v6.15l11.4-9.16,21,.11,24.6,19.8H207.8Z" transform="translate(-111.98 -150.94)"/><path class="cls-7" d="M154,354.24a47,47,0,0,0,48.46-2.56A63.63,63.63,0,0,1,154,354.24Z" transform="translate(-111.98 -150.94)"/></g></g></g></svg>